<?xml version="1.0" encoding="UTF-8"?>
<svg width="226px" height="64px" viewBox="0 0 226 64" version="1.1" xmlns="http://www.w3.org/2000/svg" xmlns:xlink="http://www.w3.org/1999/xlink">
    <!-- Generator: Sketch 43.2 (39069) - http://www.bohemiancoding.com/sketch -->
    <title>cisionreversed_logo</title>
    <desc>Created with Sketch.</desc>
    <defs></defs>
    <g id="Page-1" stroke="none" stroke-width="1" fill="none" fill-rule="evenodd">
        <g id="cnw_new_font" transform="translate(-126.000000, -48.000000)">
            <g id="cision_cnw" transform="translate(126.000000, 48.000000)">
                <g id="cisionreversed_logo">
                    <g id="cisionreversed">
                        <polyline id="Fill-1" fill="#FFFFFF" points="51.8558756 1.11207339 43.017285 1.11207339 43.017285 26.2998899 51.8558756 25.2852844 51.8558756 1.11207339"></polyline>
                        <polyline id="Fill-2" fill="#FFFFFF" points="43.017285 62.9842202 51.8558756 62.9842202 51.8558756 38.8004404 43.017285 37.7858349 43.017285 62.9842202"></polyline>
                        <polyline id="Fill-3" fill="#FF641E" points="43.017285 26.2998899 43.017285 37.7858349 51.8558756 38.8010275 51.8558756 25.2846972 43.017285 26.2998899"></polyline>
                        <path d="M76.7679845,20.5340183 C76.6813316,19.6949725 76.6380052,18.6656881 76.6380052,17.4491009 C76.6380052,16.4063119 76.724658,15.4069725 76.8979637,14.4510826 C77.0712694,13.4951927 77.3745544,12.6561468 77.8078187,11.9310092 C78.2410829,11.2070459 78.8476528,10.6134312 79.6275285,10.149578 C80.4074041,9.68631193 81.4039119,9.45497248 82.6170518,9.45497248 C84.8700259,9.45497248 86.4731036,10.1930275 87.426285,11.6703119 C88.3794663,13.1475963 88.856057,14.9002569 88.856057,16.9277064 L88.856057,18.9263853 L97.6946477,18.9263853 L97.6946477,14.5814312 C97.6946477,12.8434495 97.3480363,11.1489174 96.6548135,9.49783486 C95.9615907,7.84675229 94.9650829,6.3559633 93.6652902,5.02253211 C92.3654974,3.69027523 90.8057461,2.61930275 88.9860363,1.80726606 C87.1663264,0.99640367 85.1586736,0.590678899 82.9636632,0.590678899 C80.4208705,0.590678899 78.1977565,1.03985321 76.2913938,1.93761468 C74.3850311,2.83655046 72.810057,4.03787156 71.5688135,5.54392661 C70.3258135,7.05115596 69.3878549,8.84609174 68.7525959,10.9316697 C68.1161658,13.0172477 67.7994145,15.2196697 67.7994145,17.536 C67.7994145,19.6885138 68.0066788,21.6331743 68.4059845,23.3846606 L77.2510155,22.3688807 C77.0039378,21.835156 76.8394145,21.2262752 76.7679845,20.5340183" id="Fill-4" fill="#FFFFFF"></path>
                        <path d="M88.856057,45.4306055 C88.856057,46.8209908 88.7975078,48.0962936 88.6827513,49.2547523 C88.5662383,50.413211 88.2928135,51.3837798 87.8595492,52.1658716 C87.426285,52.9479633 86.7898549,53.5562569 85.9531865,53.9901651 C85.1147617,54.4240734 83.9449482,54.6419083 82.4437461,54.6419083 C80.190772,54.6419083 78.5876943,53.9901651 77.634513,52.6860917 C76.6813316,51.3837798 76.2047409,49.9205872 76.2047409,48.2988624 L76.2047409,45.5169174 L67.3661503,45.5169174 L67.3661503,48.8196697 C67.3661503,50.9046606 67.7560881,52.8475596 68.5359637,54.6419083 C69.3158394,56.4386055 70.3691399,57.9881101 71.6987927,59.290422 C73.0266891,60.5939083 74.6151295,61.6237798 76.4646995,62.3753394 C78.312513,63.1286606 80.3055285,63.5050275 82.4437461,63.5050275 C85.2734301,63.5050275 87.6716062,63.0411743 89.6359326,62.1152294 C91.5990881,61.1898716 93.1740622,59.9286606 94.358513,58.3351193 C95.5417927,56.7427523 96.3948549,54.8309725 96.914772,52.600367 C97.4346891,50.3703486 97.6946477,47.9512661 97.6946477,45.3437064 C97.6946477,44.9045138 97.6864508,44.4835229 97.6770829,44.0625321 L88.8027772,43.0438165 C88.8367358,43.7554495 88.856057,44.5463486 88.856057,45.4306055" id="Fill-5" fill="#FFFFFF"></path>
                        <path d="M96.0049171,34.6122569 C95.3397979,33.2518165 94.4018394,32.0634128 93.1886995,31.0493945 C91.9755596,30.0359633 90.3859482,29.1522936 88.4227927,28.3983853 L81.6638705,25.7045138 C80.5075233,25.2418349 79.5976684,24.7785688 78.9343057,24.3141284 C78.2691865,23.8514495 77.7644922,23.314789 77.4178808,22.7064954 C77.3564041,22.599633 77.3042953,22.4839633 77.2510155,22.3688807 L68.4059845,23.3846606 C68.7274197,24.7920734 69.1700518,26.0773578 69.7491036,27.2252477 C71.0488964,29.8040367 73.6051554,31.8749358 77.4178808,33.4391193 L83.7435389,36.0455046 C84.8401658,36.509945 85.7219171,36.9450275 86.3864508,37.3489908 C87.0498135,37.7553028 87.5697306,38.2761101 87.9462021,38.9125872 C88.3209171,39.5514128 88.5662383,40.3904587 88.6827513,41.4326606 C88.7348601,41.9076697 88.7735026,42.4496147 88.8027772,43.0432294 L97.6770829,44.0625321 C97.6407824,42.3198532 97.5330518,40.7286606 97.3480363,39.303633 C97.1161813,37.538055 96.6682798,35.9738716 96.0049171,34.6122569" id="Fill-6" fill="#FF641E"></path>
                        <polyline id="Fill-7" fill="#FFFFFF" points="113.204922 62.9842202 122.043513 62.9842202 122.043513 46.8603303 113.204922 45.8457248 113.204922 62.9842202"></polyline>
                        <polyline id="Fill-8" fill="#FFFFFF" points="122.043513 1.11207339 113.204922 1.11207339 113.204922 18.24 122.043513 17.2253945 122.043513 1.11207339"></polyline>
                        <polyline id="Fill-9" fill="#FF641E" points="113.204922 18.24 113.204922 45.8457248 122.043513 46.8603303 122.043513 17.2248073 113.204922 18.24"></polyline>
                        <path d="M149.382487,10.9751193 C150.565181,9.96227523 151.96685,9.45438532 153.584565,9.45438532 C155.200523,9.45438532 156.602777,9.96227523 157.786642,10.9751193 C158.389699,11.4918165 158.837601,12.1570642 159.13386,12.9661651 L168.021632,11.9456881 C167.806171,10.9387156 167.502886,9.99045872 167.102409,9.10678899 C166.235881,7.19500917 165.094756,5.6173211 163.680207,4.37078899 C162.263902,3.12543119 160.675461,2.18480734 158.913715,1.54656881 C157.150798,0.909504587 155.374415,0.590678899 153.584565,0.590678899 C151.793544,0.590678899 150.017161,0.909504587 148.255415,1.54656881 C146.491912,2.18480734 144.904642,3.12543119 143.489508,4.37078899 C142.073202,5.6173211 140.933249,7.19500917 140.06672,9.10678899 C139.248202,10.9134679 138.821378,12.9820183 138.77571,15.3042202 L147.708565,14.2778716 C147.92344,12.8504954 148.479658,11.7478165 149.382487,10.9751193" id="Fill-10" fill="#FFFFFF"></path>
                        <path d="M157.787228,53.1217615 C156.602777,54.1357798 155.201109,54.6424954 153.584565,54.6424954 C151.96685,54.6424954 150.565181,54.1357798 149.382487,53.1217615 C148.477316,52.3478899 147.920513,51.2416881 147.707394,49.8066789 L138.775124,48.7815046 C138.818451,51.1641835 139.24586,53.2503486 140.06672,55.0335413 C140.933249,56.9159633 142.073202,58.4807339 143.489508,59.7260917 C144.904642,60.9726239 146.492497,61.9132477 148.255415,62.5497248 C150.017161,63.186789 151.793544,63.5056147 153.584565,63.5056147 C155.374415,63.5056147 157.150798,63.186789 158.913715,62.5497248 C160.675461,61.9132477 162.263902,60.9726239 163.679622,59.7260917 C165.094171,58.4807339 166.235881,56.9159633 167.102409,55.0335413 C167.511668,54.1445872 167.820223,53.1793028 168.036269,52.1423853 L159.137373,51.1195596 C158.841114,51.9345321 158.392627,52.6027156 157.787228,53.1217615" id="Fill-11" fill="#FFFFFF"></path>
                        <path d="M168.402202,15.7111193 C168.402202,14.3718165 168.272223,13.1182385 168.021632,11.9456881 L159.13386,12.9661651 C159.418995,13.7459083 159.563611,14.6601101 159.563611,15.7111193 L159.563611,48.3851743 C159.563611,49.4320734 159.41958,50.3427523 159.137373,51.1195596 L168.036269,52.1417982 C168.277492,50.9821651 168.402202,49.7315229 168.402202,48.3851743 L168.402202,15.7111193" id="Fill-12" fill="#FF641E"></path>
                        <path d="M147.605518,48.3851743 L147.605518,15.7111193 C147.605518,15.2008807 147.642404,14.7246972 147.708565,14.2784587 L138.77571,15.3042202 C138.773368,15.4404404 138.766927,15.5737248 138.766927,15.7111193 L138.766927,48.3851743 C138.766927,48.519633 138.773368,48.6488073 138.775124,48.7820917 L147.707394,49.8072661 C147.641233,49.3639633 147.605518,48.8907156 147.605518,48.3851743" id="Fill-13" fill="#FF641E"></path>
                        <polyline id="Fill-14" fill="#FFFFFF" points="207.049373 62.9842202 215.368047 62.9842202 215.368047 57.5776881 204.635974 56.3440734 207.049373 62.9842202"></polyline>
                        <polyline id="Fill-15" fill="#FFFFFF" points="184.519047 62.9842202 193.357637 62.9842202 193.357637 55.0493945 184.519047 54.034789 184.519047 62.9842202"></polyline>
                        <polyline id="Fill-16" fill="#FFFFFF" points="215.368047 1.11207339 206.52887 1.11207339 206.52887 7.52381651 215.368047 6.50862385 215.368047 1.11207339"></polyline>
                        <polyline id="Fill-17" fill="#FFFFFF" points="193.011026 1.11207339 184.519047 1.11207339 184.519047 10.0515229 195.749373 8.76154128 193.011026 1.11207339"></polyline>
                        <polyline id="Fill-18" fill="#FF641E" points="206.52887 7.52381651 206.52887 38.3917798 206.355565 38.3917798 195.749373 8.76154128 184.519047 10.0515229 184.519047 54.034789 193.357637 55.0493945 193.357637 25.7914128 193.530943 25.7914128 204.635974 56.3440734 215.368047 57.5776881 215.368047 6.50862385 206.52887 7.52381651"></polyline>
                        <path d="M24.6890363,4.88161468 C23.4179326,3.57754128 21.9296114,2.53533945 20.2264145,1.75324771 C18.5214611,0.971155963 16.687114,0.580110092 14.7239585,0.580110092 C13.0476943,0.580110092 11.3444974,0.812036697 9.61144041,1.2747156 C7.87838342,1.73798165 6.31863212,2.53533945 4.93218653,3.66502752 C3.54574093,4.7947156 2.40403109,6.28550459 1.50939896,8.14033028 C0.613010363,9.9933945 0.166279793,12.3396697 0.166279793,15.1785688 L0.166279793,48.9065688 C0.166279793,51.7454679 0.613010363,54.0923303 1.50939896,55.9453945 C2.40403109,57.8002202 3.54574093,59.2910092 4.93218653,60.4206972 C6.31863212,61.5503853 7.87838342,62.3477431 9.61144041,62.810422 C11.3444974,63.2731009 13.0476943,63.5056147 14.7239585,63.5056147 C16.687114,63.5056147 18.5214611,63.1145688 20.2264145,62.3324771 C21.9296114,61.5503853 23.4179326,60.5075963 24.6890363,59.2041101 C25.9589689,57.9006239 26.9554767,56.3798899 27.6785596,54.6424954 C28.399886,52.9045138 28.7617202,51.0790459 28.7617202,49.1672661 L28.7617202,43.0438165 L19.8276943,42.0521101 L19.8276943,44.7647706 C19.8276943,46.5837798 19.8540415,50.7285138 18.8218187,52.3637431 C18.566544,52.7677064 18.2726269,53.1252844 17.9318705,53.4364771 C17.4160518,53.8480734 16.8539793,54.1510459 16.2403834,54.3377615 C15.7514974,54.4874862 15.2866166,54.580844 14.8457409,54.6195963 C14.7134197,54.6289908 14.579342,54.6366239 14.4394093,54.6401468 C14.4189171,54.6401468 14.3972539,54.6424954 14.3773472,54.6424954 C12.3544715,54.6424954 10.9545596,54.0336147 10.1746839,52.8170275 C9.39480829,51.6004404 9.00487047,50.0949725 9.00487047,48.2982752 L9.00487047,15.7868624 C9.00487047,13.9907523 9.39480829,12.4846972 10.1746839,11.2686972 C10.9545596,10.0521101 12.3544715,9.44381651 14.3773472,9.44381651 C14.3972539,9.44381651 14.4189171,9.44616514 14.4394093,9.44616514 C14.579342,9.44910092 14.7134197,9.45673394 14.8457409,9.46612844 C15.2866166,9.50546789 15.7514974,9.59823853 16.2403834,9.74737615 C16.8539793,9.9346789 17.4160518,10.2382385 17.9318705,10.6492477 C18.2726269,10.9610275 18.566544,11.3180183 18.8218187,11.7213945 C19.8540415,13.357211 19.8276943,17.5013578 19.8276943,19.3209541 L19.8276943,22.0342018 L28.7488394,20.9156697 L28.7617202,14.9184587 C28.7617202,13.0066789 28.399886,11.181211 27.6785596,9.44381651 C26.9554767,7.70583486 25.9589689,6.18510092 24.6890363,4.88161468" id="Fill-19" fill="#FFFFFF"></path>
                        <path d="M222.272756,3.9386422 L222.913285,3.9386422 C223.191394,3.9386422 223.401,3.89695413 223.540933,3.81416514 C223.68028,3.73137615 223.749368,3.5933945 223.749368,3.39904587 C223.749368,3.23346789 223.688477,3.11192661 223.566109,3.03500917 C223.443741,2.95809174 223.285073,2.91933945 223.09186,2.91933945 L222.272756,2.91933945 L222.272756,3.9386422 Z M221.708927,2.40557798 L223.075466,2.40557798 C223.900425,2.40557798 224.313197,2.74495413 224.313197,3.42488073 C224.313197,3.59633028 224.288606,3.74194495 224.240596,3.86113761 C224.192,3.98091743 224.125839,4.0813211 224.040358,4.16117431 C223.954876,4.24161468 223.855927,4.3026789 223.745269,4.34554128 C223.634611,4.38840367 223.515756,4.41834862 223.391047,4.43537615 L224.42444,6.01893578 L223.741171,6.01893578 L222.707777,4.45240367 L222.272756,4.45240367 L222.272756,6.01893578 L221.708927,6.01893578 L221.708927,2.40557798 Z M225.355373,4.21225688 C225.355373,3.86407339 225.289798,3.53585321 225.158648,3.22759633 C225.028083,2.91933945 224.851264,2.65100917 224.629363,2.4226055 C224.406876,2.19420183 224.145746,2.01277064 223.843632,1.87889908 C223.542104,1.74502752 223.220668,1.67750459 222.878741,1.67750459 C222.536813,1.67750459 222.215964,1.74502752 221.91385,1.87889908 C221.612321,2.01277064 221.350606,2.19420183 221.128705,2.4226055 C220.906803,2.65100917 220.729399,2.91933945 220.598249,3.22759633 C220.467684,3.53585321 220.401523,3.86407339 220.401523,4.21225688 C220.401523,4.56102752 220.467684,4.88924771 220.598249,5.19750459 C220.729399,5.50576147 220.906803,5.77409174 221.128705,6.00249541 C221.350606,6.23089908 221.612321,6.41174312 221.91385,6.54620183 C222.215964,6.68007339 222.536813,6.74759633 222.878741,6.74759633 C223.220668,6.74759633 223.542104,6.68007339 223.843632,6.54620183 C224.145746,6.41174312 224.406876,6.23089908 224.629363,6.00249541 C224.851264,5.77409174 225.028083,5.50576147 225.158648,5.19750459 C225.289798,4.88924771 225.355373,4.56102752 225.355373,4.21225688 L225.355373,4.21225688 Z M219.787342,4.21225688 C219.787342,3.78422018 219.86814,3.38201835 220.030907,3.00506422 C220.193674,2.62811009 220.413819,2.29988991 220.693098,2.01981651 C220.971207,1.74033028 221.299668,1.51897248 221.674383,1.35633028 C222.050855,1.19368807 222.451332,1.11207339 222.878741,1.11207339 C223.305565,1.11207339 223.706627,1.19368807 224.083098,1.35633028 C224.458399,1.51897248 224.786275,1.74033028 225.064383,2.01981651 C225.344249,2.29988991 225.564394,2.62811009 225.726575,3.00506422 C225.889342,3.38201835 225.97014,3.78422018 225.97014,4.21225688 C225.97014,4.64088073 225.889342,5.04308257 225.726575,5.4200367 C225.564394,5.79699083 225.344249,6.12521101 225.064383,6.40469725 C224.786275,6.68477064 224.458399,6.90554128 224.083098,7.06877064 C223.706627,7.23082569 223.305565,7.31302752 222.878741,7.31302752 C222.451332,7.31302752 222.050855,7.23082569 221.674383,7.06877064 C221.299668,6.90554128 220.971207,6.68477064 220.693098,6.40469725 C220.413819,6.12521101 220.193674,5.79699083 220.030907,5.4200367 C219.86814,5.04308257 219.787342,4.64088073 219.787342,4.21225688 L219.787342,4.21225688 Z" id="Fill-20" fill="#FFFFFF"></path>
                    </g>
                </g>
            </g>
        </g>
    </g>
</svg>